<?xml version="1.0" encoding="UTF-8"?>
<svg version="1.1" xmlns="http://www.w3.org/2000/svg" width="128" height="128">
<path d="M0 0 C1.00239716 -0.01022186 2.00479431 -0.02044373 3.03756714 -0.03097534 C6.34316046 -0.05871998 9.64791753 -0.05685762 12.95361328 -0.05224609 C15.25758167 -0.06002291 17.5615472 -0.06869285 19.86550903 -0.07821655 C24.69233498 -0.09313094 29.51886834 -0.09256614 34.34570312 -0.08203125 C40.52193473 -0.07044586 46.69696601 -0.10429672 52.87299919 -0.1507206 C57.63094041 -0.18022991 62.38859374 -0.18193406 67.14661026 -0.17570114 C69.42313132 -0.17672594 71.69966884 -0.18717111 73.97610092 -0.20732498 C77.16454063 -0.23208829 80.35065808 -0.21845551 83.5390625 -0.1953125 C84.940495 -0.21824371 84.940495 -0.21824371 86.37023926 -0.24163818 C93.15674265 -0.13312953 97.08944709 1.771487 101.89892578 6.54931641 C106.43660726 11.61975915 106.48321805 15.97514965 106.44824219 22.46679688 C106.45846405 23.44968689 106.46868591 24.4325769 106.47921753 25.44525146 C106.50695794 28.68591854 106.50510015 31.9257324 106.50048828 35.16650391 C106.50826534 37.42563186 106.51693534 39.6847569 106.52645874 41.94387817 C106.54137222 46.67654911 106.54080901 51.40892162 106.53027344 56.14160156 C106.51868829 62.19677419 106.55253862 68.25072244 106.59896278 74.30569267 C106.628475 78.970989 106.63017586 83.63599176 106.62394333 88.3013649 C106.62496799 90.53322906 106.63541053 92.76511002 106.65556717 94.99688339 C106.68033627 98.12307233 106.66669459 101.2468938 106.64355469 104.37304688 C106.65884216 105.28863373 106.67412964 106.20422058 106.68988037 107.14755249 C106.58172849 113.78200664 104.62674154 117.8678804 99.89892578 122.54931641 C93.78965327 127.0117235 88.26209943 127.70360105 80.88867188 127.72631836 C79.96634766 127.73288956 79.04402344 127.73946075 78.09375 127.74623108 C75.03662027 127.76596535 71.97953972 127.77762862 68.92236328 127.78759766 C67.87722187 127.79167318 66.83208046 127.79574871 65.7552681 127.79994774 C60.22063647 127.82081165 54.68602964 127.83511051 49.15136719 127.84448242 C43.44513782 127.85553158 37.73930005 127.88991357 32.03320885 127.92965412 C27.63729141 127.95585247 23.24146669 127.96417726 18.84547806 127.9677639 C16.74282825 127.97262358 14.64018241 127.98421983 12.5376091 128.0028019 C9.58661037 128.02725547 6.63661676 128.02621652 3.68554688 128.01928711 C2.82494659 128.03209717 1.96434631 128.04490723 1.07766724 128.05810547 C-5.8288845 127.99931887 -11.94023963 126.26351132 -17.25732422 121.69775391 C-17.70076172 121.11251953 -18.14419922 120.52728516 -18.60107422 119.92431641 C-19.06513672 119.33392578 -19.52919922 118.74353516 -20.00732422 118.13525391 C-21.87246975 115.43079289 -22.23159089 113.73314431 -22.26170349 110.49032593 C-22.27677193 109.21617828 -22.27677193 109.21617828 -22.29214478 107.91629028 C-22.29797577 106.98227386 -22.30380676 106.04825745 -22.30981445 105.0859375 C-22.31959824 104.10363159 -22.32938202 103.12132568 -22.33946228 102.10925293 C-22.36945996 98.84710044 -22.39081651 95.58498918 -22.40966797 92.32275391 C-22.4162398 91.2092519 -22.42281162 90.09574989 -22.4295826 88.9485054 C-22.46219895 83.05194621 -22.48664155 77.15540524 -22.50610352 71.25878906 C-22.52390419 66.37961475 -22.55870225 61.50101971 -22.60864258 56.62207031 C-22.66886279 50.73230645 -22.69958261 44.84307909 -22.7092762 38.953022 C-22.71783088 36.70995472 -22.73664912 34.46690176 -22.76601982 32.22401047 C-22.80498592 29.07839499 -22.80596148 25.93486257 -22.7980957 22.7890625 C-22.81809631 21.86719147 -22.83809692 20.94532043 -22.85870361 19.99551392 C-22.78307592 13.23608712 -20.85045994 9.33943194 -16.10107422 4.54931641 C-10.99776667 -0.03687717 -6.54301203 -0.03455 0 0 Z " fill="#835E41" transform="translate(22.10107421875,-0.54931640625)"/>
<path d="M0 0 C1.35400658 -0.01226624 1.35400658 -0.01226624 2.73536682 -0.02478027 C5.73299494 -0.04965989 8.73057547 -0.06616065 11.72827148 -0.08056641 C12.75226484 -0.08589008 13.7762582 -0.09121376 14.83128166 -0.09669876 C20.25567756 -0.12344689 25.68005036 -0.14281279 31.10449219 -0.15722656 C36.69762468 -0.17383993 42.29016399 -0.21858541 47.88307285 -0.26959801 C52.19063459 -0.30332826 56.49805689 -0.3148106 60.80573845 -0.32045364 C62.86654101 -0.32715467 64.92733477 -0.34234667 66.9880085 -0.36634445 C69.88181226 -0.39811001 72.77403504 -0.39801508 75.66796875 -0.390625 C76.93317352 -0.415233 76.93317352 -0.415233 78.22393799 -0.44033813 C84.58386374 -0.37424103 89.09899587 1.53542866 94.28686523 5.19287109 C98.62527405 9.64252116 100.55837199 14.06507018 100.48217773 20.27490234 C100.47718262 21.11512939 100.4721875 21.95535645 100.46704102 22.82104492 C100.44883301 23.87187256 100.430625 24.9227002 100.41186523 26.00537109 C100.37061523 29.36724609 100.32936523 32.72912109 100.28686523 36.19287109 C93.02686523 36.19287109 85.76686523 36.19287109 78.28686523 36.19287109 C78.28686523 30.58287109 78.28686523 24.97287109 78.28686523 19.19287109 C72.67686523 19.19287109 67.06686523 19.19287109 61.28686523 19.19287109 C61.28686523 25.13287109 61.28686523 31.07287109 61.28686523 37.19287109 C55.67686523 37.19287109 50.06686523 37.19287109 44.28686523 37.19287109 C44.28686523 42.47287109 44.28686523 47.75287109 44.28686523 53.19287109 C49.50749798 53.15329952 49.50749798 53.15329952 54.72802734 53.1027832 C56.58120282 53.09563165 58.43435831 53.14258589 60.28686523 53.19287109 C61.28686523 54.19287109 61.28686523 54.19287109 61.38452148 57.79052734 C61.37877795 59.27884365 61.36576414 60.76713405 61.34936523 62.25537109 C61.32874023 64.87474609 61.30811523 67.49412109 61.28686523 70.19287109 C55.34686523 70.19287109 49.40686523 70.19287109 43.28686523 70.19287109 C43.28686523 64.91287109 43.28686523 59.63287109 43.28686523 54.19287109 C37.67686523 54.19287109 32.06686523 54.19287109 26.28686523 54.19287109 C26.28686523 48.58287109 26.28686523 42.97287109 26.28686523 37.19287109 C20.67686523 37.19287109 15.06686523 37.19287109 9.28686523 37.19287109 C9.28686523 42.47287109 9.28686523 47.75287109 9.28686523 53.19287109 C3.67686523 53.19287109 -1.93313477 53.19287109 -7.71313477 53.19287109 C-8.47728424 41.82614766 -8.8414284 30.58249488 -8.71313477 19.19287109 C-13.33313477 19.19287109 -17.95313477 19.19287109 -22.71313477 19.19287109 C-22.71313477 10.79287109 -22.71313477 10.79287109 -18.71313477 6.19287109 C-12.35553009 1.5314653 -7.87230462 0.03910223 0 0 Z " fill="#BCDB99" transform="translate(25.713134765625,0.80712890625)"/>
<path d="M0 0 C1.00239716 -0.01022186 2.00479431 -0.02044373 3.03756714 -0.03097534 C6.34316046 -0.05871998 9.64791753 -0.05685762 12.95361328 -0.05224609 C15.25758167 -0.06002291 17.5615472 -0.06869285 19.86550903 -0.07821655 C24.69233498 -0.09313094 29.51886834 -0.09256614 34.34570312 -0.08203125 C40.52193473 -0.07044586 46.69696601 -0.10429672 52.87299919 -0.1507206 C57.63094041 -0.18022991 62.38859374 -0.18193406 67.14661026 -0.17570114 C69.42313132 -0.17672594 71.69966884 -0.18717111 73.97610092 -0.20732498 C77.16454063 -0.23208829 80.35065808 -0.21845551 83.5390625 -0.1953125 C84.940495 -0.21824371 84.940495 -0.21824371 86.37023926 -0.24163818 C93.15674265 -0.13312953 97.08944709 1.771487 101.89892578 6.54931641 C106.43660726 11.61975915 106.48321805 15.97514965 106.44824219 22.46679688 C106.45846405 23.44968689 106.46868591 24.4325769 106.47921753 25.44525146 C106.50695794 28.68591854 106.50510015 31.9257324 106.50048828 35.16650391 C106.50826534 37.42563186 106.51693534 39.6847569 106.52645874 41.94387817 C106.54137222 46.67654911 106.54080901 51.40892162 106.53027344 56.14160156 C106.51868829 62.19677419 106.55253862 68.25072244 106.59896278 74.30569267 C106.628475 78.970989 106.63017586 83.63599176 106.62394333 88.3013649 C106.62496799 90.53322906 106.63541053 92.76511002 106.65556717 94.99688339 C106.68033627 98.12307233 106.66669459 101.2468938 106.64355469 104.37304688 C106.65884216 105.28863373 106.67412964 106.20422058 106.68988037 107.14755249 C106.58172849 113.78200664 104.62674154 117.8678804 99.89892578 122.54931641 C93.78965327 127.0117235 88.26209943 127.70360105 80.88867188 127.72631836 C79.96634766 127.73288956 79.04402344 127.73946075 78.09375 127.74623108 C75.03662027 127.76596535 71.97953972 127.77762862 68.92236328 127.78759766 C67.87722187 127.79167318 66.83208046 127.79574871 65.7552681 127.79994774 C60.22063647 127.82081165 54.68602964 127.83511051 49.15136719 127.84448242 C43.44513782 127.85553158 37.73930005 127.88991357 32.03320885 127.92965412 C27.63729141 127.95585247 23.24146669 127.96417726 18.84547806 127.9677639 C16.74282825 127.97262358 14.64018241 127.98421983 12.5376091 128.0028019 C9.58661037 128.02725547 6.63661676 128.02621652 3.68554688 128.01928711 C2.82494659 128.03209717 1.96434631 128.04490723 1.07766724 128.05810547 C-5.8288845 127.99931887 -11.94023963 126.26351132 -17.25732422 121.69775391 C-17.70076172 121.11251953 -18.14419922 120.52728516 -18.60107422 119.92431641 C-19.06513672 119.33392578 -19.52919922 118.74353516 -20.00732422 118.13525391 C-21.87246975 115.43079289 -22.23159089 113.73314431 -22.26170349 110.49032593 C-22.27677193 109.21617828 -22.27677193 109.21617828 -22.29214478 107.91629028 C-22.29797577 106.98227386 -22.30380676 106.04825745 -22.30981445 105.0859375 C-22.31959824 104.10363159 -22.32938202 103.12132568 -22.33946228 102.10925293 C-22.36945996 98.84710044 -22.39081651 95.58498918 -22.40966797 92.32275391 C-22.4162398 91.2092519 -22.42281162 90.09574989 -22.4295826 88.9485054 C-22.46219895 83.05194621 -22.48664155 77.15540524 -22.50610352 71.25878906 C-22.52390419 66.37961475 -22.55870225 61.50101971 -22.60864258 56.62207031 C-22.66886279 50.73230645 -22.69958261 44.84307909 -22.7092762 38.953022 C-22.71783088 36.70995472 -22.73664912 34.46690176 -22.76601982 32.22401047 C-22.80498592 29.07839499 -22.80596148 25.93486257 -22.7980957 22.7890625 C-22.81809631 21.86719147 -22.83809692 20.94532043 -22.85870361 19.99551392 C-22.78307592 13.23608712 -20.85045994 9.33943194 -16.10107422 4.54931641 C-10.99776667 -0.03687717 -6.54301203 -0.03455 0 0 Z M-16.60107422 9.23681641 C-19.58159425 13.83178479 -19.10107422 13.94553254 -19.10107422 20.54931641 C-14.48107422 20.54931641 -9.86107422 20.54931641 -5.10107422 20.54931641 C-5.11267578 21.57927734 -5.12427734 22.60923828 -5.13623047 23.67041016 C-5.21458101 34.01390577 -4.79497334 44.22756693 -4.10107422 54.54931641 C1.50892578 54.54931641 7.11892578 54.54931641 12.89892578 54.54931641 C12.89892578 49.26931641 12.89892578 43.98931641 12.89892578 38.54931641 C18.50892578 38.54931641 24.11892578 38.54931641 29.89892578 38.54931641 C29.89892578 44.15931641 29.89892578 49.76931641 29.89892578 55.54931641 C35.50892578 55.54931641 41.11892578 55.54931641 46.89892578 55.54931641 C46.89892578 60.82931641 46.89892578 66.10931641 46.89892578 71.54931641 C35.67892578 71.54931641 24.45892578 71.54931641 12.89892578 71.54931641 C12.89892578 77.15931641 12.89892578 82.76931641 12.89892578 88.54931641 C10.33111328 88.53191406 10.33111328 88.53191406 7.71142578 88.51416016 C5.44059354 88.50477655 3.16976012 88.49567696 0.89892578 88.48681641 C-0.22642578 88.4784375 -1.35177734 88.47005859 -2.51123047 88.46142578 C-8.47691819 88.44398225 -14.20394995 88.63150417 -20.10107422 89.54931641 C-21.38570989 103.62476496 -21.38570989 103.62476496 -15.74951172 115.95556641 C-9.14422415 122.34172121 -4.14743449 123.85063892 4.81665039 123.82397461 C6.14928169 123.83164101 6.14928169 123.83164101 7.50883484 123.83946228 C10.43971531 123.85333938 13.37036015 123.85240297 16.30126953 123.85009766 C18.3424132 123.85398551 20.38355606 123.85832036 22.42469788 123.86308289 C26.70088322 123.87054097 30.97698599 123.8702567 35.25317383 123.86499023 C40.72866956 123.85919498 46.20382711 123.87613006 51.67926693 123.89933491 C55.8940681 123.91407754 60.10878792 123.91494324 64.32361031 123.91182518 C66.34219597 123.91233808 68.36078622 123.91757003 70.37934685 123.9276371 C73.20372276 123.93999485 76.02744099 123.93321379 78.85180664 123.92163086 C80.09806824 123.93309647 80.09806824 123.93309647 81.36950684 123.9447937 C87.90995126 123.88560743 92.55052743 121.99796116 97.58642578 117.73681641 C98.14716797 117.27662109 98.70791016 116.81642578 99.28564453 116.34228516 C103.93401015 111.1761839 104.33892443 106.14648287 104.30297852 99.54980469 C104.31327339 98.22177322 104.31327339 98.22177322 104.32377625 96.86691284 C104.3420217 93.95098665 104.33820951 91.03559974 104.33251953 88.11962891 C104.33708282 86.08470485 104.34238883 84.04978234 104.34840393 82.01486206 C104.35733093 77.75300836 104.35491701 73.49134209 104.3449707 69.22949219 C104.33348909 63.77989209 104.35368247 58.33094075 104.38288784 52.88142586 C104.40127493 48.67939168 104.40095223 44.47751218 104.39525032 40.27544785 C104.39509737 38.26688605 104.40111962 36.25831358 104.41354179 34.24979019 C104.42849509 31.43532436 104.41774245 28.62204699 104.40063477 25.80761719 C104.41030273 24.98553772 104.4199707 24.16345825 104.42993164 23.31646729 C104.35781395 17.6226038 103.0507915 13.32456782 99.89892578 8.54931641 C93.80627778 2.61700125 87.93549398 1.10088358 79.73168945 1.12939453 C78.37680672 1.11669022 78.37680672 1.11669022 76.99455261 1.10372925 C74.01852199 1.08039514 71.0430096 1.07933638 68.06689453 1.08056641 C65.9895253 1.07346176 63.91215802 1.06576232 61.83479309 1.05749512 C57.48298691 1.04405786 53.13136212 1.04247778 48.77954102 1.04833984 C43.21783588 1.05422965 37.65700556 1.02367011 32.09546947 0.98322296 C27.8050319 0.95730079 23.51480356 0.95447277 19.22429848 0.95811462 C17.17468381 0.95642705 15.12505911 0.94681969 13.07552147 0.92897034 C10.20121106 0.90669541 7.32865301 0.91652633 4.4543457 0.93408203 C3.61716003 0.92081879 2.77997437 0.90755554 1.91741943 0.89389038 C-5.59217152 0.99981811 -11.47359775 3.7247792 -16.60107422 9.23681641 Z " fill="#704F37" transform="translate(22.10107421875,-0.54931640625)"/>
<path d="M0 0 C17.16 0 34.32 0 52 0 C52 0.33 52 0.66 52 1 C46.39 1 40.78 1 35 1 C35 6.28 35 11.56 35 17 C40.61 17 46.22 17 52 17 C52 22.94 52 28.88 52 35 C23.95 35 -4.1 35 -33 35 C-33 29.39 -33 23.78 -33 18 C-27.99218905 17.37402363 -23.68859604 16.8766219 -18.75 16.90234375 C-17.09677734 16.90717773 -17.09677734 16.90717773 -15.41015625 16.91210938 C-14.28480469 16.92048828 -13.15945312 16.92886719 -12 16.9375 C-10.26556641 16.94426758 -10.26556641 16.94426758 -8.49609375 16.95117188 C-5.66403991 16.96287458 -2.83201298 16.98080714 0 17 C0 11.39 0 5.78 0 0 Z " fill="#906545" transform="translate(35,71)"/>
<path d="M0 0 C3.59512166 4.60913034 5.13283128 8.08283871 5.09765625 13.88671875 C5.09515869 14.73194092 5.09266113 15.57716309 5.09008789 16.44799805 C5.08098389 17.51703369 5.07187988 18.58606934 5.0625 19.6875 C5.041875 23.090625 5.02125 26.49375 5 30 C-2.26 30 -9.52 30 -17 30 C-17 24.39 -17 18.78 -17 13 C-22.61 13 -28.22 13 -34 13 C-34 18.94 -34 24.88 -34 31 C-39.61 31 -45.22 31 -51 31 C-51 36.28 -51 41.56 -51 47 C-45.77936725 46.96042843 -45.77936725 46.96042843 -40.55883789 46.90991211 C-38.70566241 46.90276055 -36.85250692 46.9497148 -35 47 C-34 48 -34 48 -33.90234375 51.59765625 C-33.90808728 53.08597255 -33.92110109 54.57426296 -33.9375 56.0625 C-33.958125 58.681875 -33.97875 61.30125 -34 64 C-39.94 64 -45.88 64 -52 64 C-52 58.72 -52 53.44 -52 48 C-57.61 48 -63.22 48 -69 48 C-69 47.67 -69 47.34 -69 47 C-63.39 47 -57.78 47 -52 47 C-52 41.39 -52 35.78 -52 30 C-46.39 30 -40.78 30 -35 30 C-35 24.39 -35 18.78 -35 13 C-40.61 13 -46.22 13 -52 13 C-52 7.72 -52 2.44 -52 -3 C-57.61 -3 -63.22 -3 -69 -3 C-69 -3.66 -69 -4.32 -69 -5 C-61.43790184 -5.16873794 -53.87565214 -5.32853071 -46.31323242 -5.48217773 C-43.74190007 -5.53546708 -41.17060893 -5.59078565 -38.59936523 -5.64819336 C-34.8983651 -5.7304696 -31.19727698 -5.80538901 -27.49609375 -5.87890625 C-25.77851112 -5.91945885 -25.77851112 -5.91945885 -24.02622986 -5.96083069 C-14.72738568 -6.13376573 -7.47082799 -6.09034891 0 0 Z " fill="#92C46B" transform="translate(121,7)"/>
<path d="M0 0 C1.00239716 -0.01022186 2.00479431 -0.02044373 3.03756714 -0.03097534 C6.34316046 -0.05871998 9.64791753 -0.05685762 12.95361328 -0.05224609 C15.25758167 -0.06002291 17.5615472 -0.06869285 19.86550903 -0.07821655 C24.69233498 -0.09313094 29.51886834 -0.09256614 34.34570312 -0.08203125 C40.52193473 -0.07044586 46.69696601 -0.10429672 52.87299919 -0.1507206 C57.63094041 -0.18022991 62.38859374 -0.18193406 67.14661026 -0.17570114 C69.42313132 -0.17672594 71.69966884 -0.18717111 73.97610092 -0.20732498 C77.16454063 -0.23208829 80.35065808 -0.21845551 83.5390625 -0.1953125 C84.940495 -0.21824371 84.940495 -0.21824371 86.37023926 -0.24163818 C93.15674265 -0.13312953 97.08944709 1.771487 101.89892578 6.54931641 C106.43660726 11.61975915 106.48321805 15.97514965 106.44824219 22.46679688 C106.45846405 23.44968689 106.46868591 24.4325769 106.47921753 25.44525146 C106.50695794 28.68591854 106.50510015 31.9257324 106.50048828 35.16650391 C106.50826534 37.42563186 106.51693534 39.6847569 106.52645874 41.94387817 C106.54137222 46.67654911 106.54080901 51.40892162 106.53027344 56.14160156 C106.51868829 62.19677419 106.55253862 68.25072244 106.59896278 74.30569267 C106.628475 78.970989 106.63017586 83.63599176 106.62394333 88.3013649 C106.62496799 90.53322906 106.63541053 92.76511002 106.65556717 94.99688339 C106.68033627 98.12307233 106.66669459 101.2468938 106.64355469 104.37304688 C106.65884216 105.28863373 106.67412964 106.20422058 106.68988037 107.14755249 C106.58172849 113.78200664 104.62674154 117.8678804 99.89892578 122.54931641 C93.78965327 127.0117235 88.26209943 127.70360105 80.88867188 127.72631836 C79.96634766 127.73288956 79.04402344 127.73946075 78.09375 127.74623108 C75.03662027 127.76596535 71.97953972 127.77762862 68.92236328 127.78759766 C67.87722187 127.79167318 66.83208046 127.79574871 65.7552681 127.79994774 C60.22063647 127.82081165 54.68602964 127.83511051 49.15136719 127.84448242 C43.44513782 127.85553158 37.73930005 127.88991357 32.03320885 127.92965412 C27.63729141 127.95585247 23.24146669 127.96417726 18.84547806 127.9677639 C16.74282825 127.97262358 14.64018241 127.98421983 12.5376091 128.0028019 C9.58661037 128.02725547 6.63661676 128.02621652 3.68554688 128.01928711 C2.82494659 128.03209717 1.96434631 128.04490723 1.07766724 128.05810547 C-5.8288845 127.99931887 -11.94023963 126.26351132 -17.25732422 121.69775391 C-17.70076172 121.11251953 -18.14419922 120.52728516 -18.60107422 119.92431641 C-19.06513672 119.33392578 -19.52919922 118.74353516 -20.00732422 118.13525391 C-21.87246975 115.43079289 -22.23159089 113.73314431 -22.26170349 110.49032593 C-22.27677193 109.21617828 -22.27677193 109.21617828 -22.29214478 107.91629028 C-22.29797577 106.98227386 -22.30380676 106.04825745 -22.30981445 105.0859375 C-22.31959824 104.10363159 -22.32938202 103.12132568 -22.33946228 102.10925293 C-22.36945996 98.84710044 -22.39081651 95.58498918 -22.40966797 92.32275391 C-22.4162398 91.2092519 -22.42281162 90.09574989 -22.4295826 88.9485054 C-22.46219895 83.05194621 -22.48664155 77.15540524 -22.50610352 71.25878906 C-22.52390419 66.37961475 -22.55870225 61.50101971 -22.60864258 56.62207031 C-22.66886279 50.73230645 -22.69958261 44.84307909 -22.7092762 38.953022 C-22.71783088 36.70995472 -22.73664912 34.46690176 -22.76601982 32.22401047 C-22.80498592 29.07839499 -22.80596148 25.93486257 -22.7980957 22.7890625 C-22.81809631 21.86719147 -22.83809692 20.94532043 -22.85870361 19.99551392 C-22.78307592 13.23608712 -20.85045994 9.33943194 -16.10107422 4.54931641 C-10.99776667 -0.03687717 -6.54301203 -0.03455 0 0 Z M-16.53857422 9.04931641 C-19.9899804 14.5715663 -20.40616301 19.05680765 -20.42333984 25.41943359 C-20.43326965 26.30303558 -20.44319946 27.18663757 -20.45343018 28.09701538 C-20.48258335 31.01343938 -20.49626248 33.92964577 -20.50732422 36.84619141 C-20.51883521 38.88014732 -20.53035058 40.91410321 -20.54187012 42.94805908 C-20.56286491 47.21163948 -20.57456645 51.47514474 -20.58154297 55.73876953 C-20.59250309 61.18737276 -20.64054618 66.63497402 -20.69748688 72.0832634 C-20.73483883 76.28532765 -20.74515604 80.487153 -20.74821472 84.6893692 C-20.75424736 86.69715091 -20.77023556 88.70492944 -20.79658508 90.7125473 C-21.39038228 104.26738752 -21.39038228 104.26738752 -15.64074707 116.07476807 C-9.0550324 122.38192261 -4.08086114 123.85044089 4.81665039 123.82397461 C6.14928169 123.83164101 6.14928169 123.83164101 7.50883484 123.83946228 C10.43971531 123.85333938 13.37036015 123.85240297 16.30126953 123.85009766 C18.3424132 123.85398551 20.38355606 123.85832036 22.42469788 123.86308289 C26.70088322 123.87054097 30.97698599 123.8702567 35.25317383 123.86499023 C40.72866956 123.85919498 46.20382711 123.87613006 51.67926693 123.89933491 C55.8940681 123.91407754 60.10878792 123.91494324 64.32361031 123.91182518 C66.34219597 123.91233808 68.36078622 123.91757003 70.37934685 123.9276371 C73.20372276 123.93999485 76.02744099 123.93321379 78.85180664 123.92163086 C80.09806824 123.93309647 80.09806824 123.93309647 81.36950684 123.9447937 C87.90995126 123.88560743 92.55052743 121.99796116 97.58642578 117.73681641 C98.14716797 117.27662109 98.70791016 116.81642578 99.28564453 116.34228516 C103.93401015 111.1761839 104.33892443 106.14648287 104.30297852 99.54980469 C104.31327339 98.22177322 104.31327339 98.22177322 104.32377625 96.86691284 C104.3420217 93.95098665 104.33820951 91.03559974 104.33251953 88.11962891 C104.33708282 86.08470485 104.34238883 84.04978234 104.34840393 82.01486206 C104.35733093 77.75300836 104.35491701 73.49134209 104.3449707 69.22949219 C104.33348909 63.77989209 104.35368247 58.33094075 104.38288784 52.88142586 C104.40127493 48.67939168 104.40095223 44.47751218 104.39525032 40.27544785 C104.39509737 38.26688605 104.40111962 36.25831358 104.41354179 34.24979019 C104.42849509 31.43532436 104.41774245 28.62204699 104.40063477 25.80761719 C104.41030273 24.98553772 104.4199707 24.16345825 104.42993164 23.31646729 C104.35781395 17.6226038 103.0507915 13.32456782 99.89892578 8.54931641 C93.80627778 2.61700125 87.93549398 1.10088358 79.73168945 1.12939453 C78.37680672 1.11669022 78.37680672 1.11669022 76.99455261 1.10372925 C74.01852199 1.08039514 71.0430096 1.07933638 68.06689453 1.08056641 C65.9895253 1.07346176 63.91215802 1.06576232 61.83479309 1.05749512 C57.48298691 1.04405786 53.13136212 1.04247778 48.77954102 1.04833984 C43.21783588 1.05422965 37.65700556 1.02367011 32.09546947 0.98322296 C27.8050319 0.95730079 23.51480356 0.95447277 19.22429848 0.95811462 C17.17468381 0.95642705 15.12505911 0.94681969 13.07552147 0.92897034 C10.20121106 0.90669541 7.32865301 0.91652633 4.4543457 0.93408203 C3.61716003 0.92081879 2.77997437 0.90755554 1.91741943 0.89389038 C-5.52199878 0.99882828 -11.33840946 3.71581409 -16.53857422 9.04931641 Z " fill="#000000" transform="translate(22.10107421875,-0.54931640625)"/>
<path d="M0 0 C0.72590332 0.00249756 1.45180664 0.00499512 2.19970703 0.00756836 C3.12122559 0.01667236 4.04274414 0.02577637 4.9921875 0.03515625 C7.9209375 0.05578125 10.8496875 0.07640625 13.8671875 0.09765625 C13.8671875 11.31765625 13.8671875 22.53765625 13.8671875 34.09765625 C19.4771875 34.09765625 25.0871875 34.09765625 30.8671875 34.09765625 C30.8671875 34.42765625 30.8671875 34.75765625 30.8671875 35.09765625 C25.2571875 35.09765625 19.6471875 35.09765625 13.8671875 35.09765625 C13.8671875 40.37765625 13.8671875 45.65765625 13.8671875 51.09765625 C8.2571875 51.09765625 2.6471875 51.09765625 -3.1328125 51.09765625 C-3.89696197 39.73093281 -4.26110613 28.48728003 -4.1328125 17.09765625 C-8.7528125 17.09765625 -13.3728125 17.09765625 -18.1328125 17.09765625 C-18.1328125 10.22321578 -18.03494843 9.09726791 -14.1328125 4.09765625 C-13.8028125 5.08765625 -13.4728125 6.07765625 -13.1328125 7.09765625 C-12.65070312 6.67613281 -12.16859375 6.25460938 -11.671875 5.8203125 C-11.04023438 5.27246094 -10.40859375 4.72460938 -9.7578125 4.16015625 C-8.81808594 3.34224609 -8.81808594 3.34224609 -7.859375 2.5078125 C-5.12233294 0.27235507 -3.45951702 -0.0243628 0 0 Z " fill="#8CBE64" transform="translate(21.1328125,2.90234375)"/>
<path d="M0 0 C0 5.61 0 11.22 0 17 C3.45919922 16.89171875 3.45919922 16.89171875 6.98828125 16.78125 C35.52195279 15.9022199 35.52195279 15.9022199 46.4375 15.8125 C47.54121948 15.79316406 47.54121948 15.79316406 48.66723633 15.7734375 C52.38130743 15.7662423 54.76868053 16.22350038 58 18 C46.14292293 18.09280769 34.28593273 18.16381984 22.42856598 18.20724869 C16.9222986 18.22809567 11.4162803 18.25636082 5.91015625 18.30175781 C0.59333355 18.34531818 -4.72325001 18.36915883 -10.04023743 18.37950897 C-12.06557477 18.38688202 -14.09089949 18.40127989 -16.11613464 18.42292023 C-18.95986902 18.45208949 -21.80262372 18.45595034 -24.64648438 18.45410156 C-25.89374298 18.47567322 -25.89374298 18.47567322 -27.16619873 18.49768066 C-33.98516458 18.44992219 -39.3427331 16.58889811 -44.27734375 11.78125 C-44.82519531 11.0284375 -45.37304688 10.275625 -45.9375 9.5 C-46.50339844 8.7471875 -47.06929687 7.994375 -47.65234375 7.21875 C-48.9544176 5.07504581 -49.45978214 3.41845035 -50 1 C-15.43425076 -0.14984709 -15.43425076 -0.14984709 0 0 Z " fill="#8D6344" transform="translate(52,105)"/>
<path d="M0 0 C0.33 1.32 0.66 2.64 1 4 C5.62 4 10.24 4 15 4 C15.79636709 15.36245185 16.09573067 26.60804982 16 38 C21.61 38 27.22 38 33 38 C33 38.33 33 38.66 33 39 C27.39 39 21.78 39 16 39 C15.67 44.28 15.34 49.56 15 55 C10.38 55 5.76 55 1 55 C1 53.02 1 51.04 1 49 C0.67 48.34 0.34 47.68 0 47 C-0.08977728 45.48835608 -0.11757433 43.97279821 -0.11352539 42.45849609 C-0.11344986 41.51767181 -0.11337433 40.57684753 -0.11329651 39.60751343 C-0.10555458 38.08089584 -0.10555458 38.08089584 -0.09765625 36.5234375 C-0.0962413 35.48305328 -0.09482635 34.44266907 -0.09336853 33.37075806 C-0.08775866 30.03880979 -0.07520447 26.70692805 -0.0625 23.375 C-0.05748627 21.11979264 -0.05292314 18.86458422 -0.04882812 16.609375 C-0.03778603 11.07289386 -0.02103827 5.53645168 0 0 Z " fill="#6D5540" transform="translate(2,16)"/>
<path d="M0 0 C0.65613281 0.43183594 1.31226562 0.86367187 1.98828125 1.30859375 C3.6875 2.5625 3.6875 2.5625 5.6875 4.5625 C5.6875 5.8825 5.6875 7.2025 5.6875 8.5625 C5.0275 8.5625 4.3675 8.5625 3.6875 8.5625 C1.82750715 6.5949413 0.15359802 4.50694402 -1.55859375 2.41015625 C-4.55461253 -0.74600607 -7.72212078 -0.60081929 -11.85546875 -0.75390625 C-12.82250732 -0.79201416 -13.7895459 -0.83012207 -14.78588867 -0.86938477 C-16.01154541 -0.91248779 -17.23720215 -0.95559082 -18.5 -1 C-22.398125 -1.144375 -26.29625 -1.28875 -30.3125 -1.4375 C-30.3125 10.1125 -30.3125 21.6625 -30.3125 33.5625 C-35.9225 33.5625 -41.5325 33.5625 -47.3125 33.5625 C-47.3125 38.8425 -47.3125 44.1225 -47.3125 49.5625 C-42.09186725 49.52292843 -42.09186725 49.52292843 -36.87133789 49.47241211 C-35.01816241 49.46526055 -33.16500692 49.5122148 -31.3125 49.5625 C-30.3125 50.5625 -30.3125 50.5625 -30.21484375 54.16015625 C-30.22058728 55.64847255 -30.23360109 57.13676296 -30.25 58.625 C-30.270625 61.244375 -30.29125 63.86375 -30.3125 66.5625 C-36.2525 66.5625 -42.1925 66.5625 -48.3125 66.5625 C-48.3125 61.2825 -48.3125 56.0025 -48.3125 50.5625 C-53.9225 50.5625 -59.5325 50.5625 -65.3125 50.5625 C-65.3125 50.2325 -65.3125 49.9025 -65.3125 49.5625 C-59.7025 49.5625 -54.0925 49.5625 -48.3125 49.5625 C-48.3125 43.9525 -48.3125 38.3425 -48.3125 32.5625 C-42.7025 32.5625 -37.0925 32.5625 -31.3125 32.5625 C-31.3125 26.9525 -31.3125 21.3425 -31.3125 15.5625 C-36.9225 15.5625 -42.5325 15.5625 -48.3125 15.5625 C-48.3125 10.2825 -48.3125 5.0025 -48.3125 -0.4375 C-53.9225 -0.4375 -59.5325 -0.4375 -65.3125 -0.4375 C-65.3125 -1.0975 -65.3125 -1.7575 -65.3125 -2.4375 C-57.75040184 -2.60623794 -50.18815214 -2.76603071 -42.62573242 -2.91967773 C-40.05440007 -2.97296708 -37.48310893 -3.02828565 -34.91186523 -3.08569336 C-31.2108651 -3.1679696 -27.50977698 -3.24288901 -23.80859375 -3.31640625 C-22.09101112 -3.35695885 -22.09101112 -3.35695885 -20.33872986 -3.39833069 C-5.44216394 -3.67536923 -5.44216394 -3.67536923 0 0 Z " fill="#A3D07E" transform="translate(117.3125,4.4375)"/>
<path d="M0 0 C11.55 0 23.1 0 35 0 C35 5.94 35 11.88 35 18 C23.45 18 11.9 18 0 18 C0 12.06 0 6.12 0 0 Z " fill="#BF9366" transform="translate(52,88)"/>
<path d="M0 0 C5.61 0 11.22 0 17 0 C17 5.94 17 11.88 17 18 C11.72 18.33 6.44 18.66 1 19 C0.67 23.95 0.34 28.9 0 34 C-5.61 34 -11.22 34 -17 34 C-17 28.72 -17 23.44 -17 18 C-11.39 18 -5.78 18 0 18 C0 12.06 0 6.12 0 0 Z " fill="#88694F" transform="translate(87,20)"/>
<path d="M0 0 C10.89 0 21.78 0 33 0 C33 5.61 33 11.22 33 17 C22.11 17 11.22 17 0 17 C0 11.39 0 5.78 0 0 Z " fill="#B68159" transform="translate(2,89)"/>
<path d="M0 0 C11.55 0 23.1 0 35 0 C35 9 35 9 34 15 C23.11 15 12.22 15 1 15 C0 11 0 11 0 0 Z " fill="#936948" transform="translate(52,106)"/>
<path d="M0 0 C6.6 0 13.2 0 20 0 C20 23.1 20 46.2 20 70 C19.505 69.01 19.505 69.01 19 68 C18.01 68 17.02 68 16 68 C16 69.65 16 71.3 16 73 C15.67 73 15.34 73 15 73 C13.94523121 68.04649325 14.04445772 63.62160651 14.4375 58.625 C14.48970703 57.88894531 14.54191406 57.15289062 14.59570312 56.39453125 C14.72417723 54.59589371 14.86120949 52.79787091 15 51 C13.68 50.67 12.36 50.34 11 50 C12.65 50 14.3 50 16 50 C16 55.61 16 61.22 16 67 C16.99 66.505 16.99 66.505 18 66 C17.99214478 64.86570557 17.99214478 64.86570557 17.98413086 63.70849609 C17.96327276 60.26400593 17.95031174 56.8195291 17.9375 53.375 C17.92912109 52.18519531 17.92074219 50.99539062 17.91210938 49.76953125 C17.90727539 48.03896484 17.90727539 48.03896484 17.90234375 46.2734375 C17.89448853 44.68668213 17.89448853 44.68668213 17.88647461 43.06787109 C18.00124422 39.96637654 18.42303718 37.04652343 19 34 C17.68 33.67 16.36 33.34 15 33 C15 27.39 15 21.78 15 16 C9.72 16 4.44 16 -1 16 C-2.31764706 6.44705882 -2.31764706 6.44705882 -2 2 C-1.34 1.34 -0.68 0.68 0 0 Z " fill="#674C37" transform="translate(106,38)"/>
<path d="M0 0 C5.61 0 11.22 0 17 0 C17 5.61 17 11.22 17 17 C20.45919922 16.89171875 20.45919922 16.89171875 23.98828125 16.78125 C52.52195279 15.9022199 52.52195279 15.9022199 63.4375 15.8125 C64.54121948 15.79316406 64.54121948 15.79316406 65.66723633 15.7734375 C69.61194056 15.7657955 71.33604097 16.16802048 75 18 C44.64 18 14.28 18 -17 18 C-17 17.67 -17 17.34 -17 17 C-11.72 17 -6.44 17 -1 17 C-0.67 11.39 -0.34 5.78 0 0 Z " fill="#5B3E2A" transform="translate(35,105)"/>
<path d="M0 0 C0.33 0 0.66 0 1 0 C1 6.93 1 13.86 1 21 C-6.26 21 -13.52 21 -21 21 C-21 15.72 -21 10.44 -21 5 C-14.93303301 4.22959149 -9.11485027 3.90293888 -3 4 C-2.67 3.01 -2.34 2.02 -2 1 C-1.67 1.33 -1.34 1.66 -1 2 C-0.67 1.34 -0.34 0.68 0 0 Z " fill="#78B150" transform="translate(125,16)"/>
<path d="M0 0 C5.94 0 11.88 0 18 0 C18 0.33 18 0.66 18 1 C12.39 1 6.78 1 1 1 C1 6.28 1 11.56 1 17 C6.22063275 16.96042843 6.22063275 16.96042843 11.44116211 16.90991211 C13.29433759 16.90276055 15.14749308 16.9497148 17 17 C18 18 18 18 18.09765625 21.59765625 C18.09191272 23.08597255 18.07889891 24.57426296 18.0625 26.0625 C18.041875 28.681875 18.02125 31.30125 18 34 C12.06 34 6.12 34 0 34 C0 28.72 0 23.44 0 18 C-5.61 18 -11.22 18 -17 18 C-17 17.67 -17 17.34 -17 17 C-11.39 17 -5.78 17 0 17 C0 11.39 0 5.78 0 0 Z " fill="#B89468" transform="translate(69,37)"/>
<path d="M0 0 C11.22 0 22.44 0 34 0 C34 0.33 34 0.66 34 1 C28.39 1 22.78 1 17 1 C17 6.28 17 11.56 17 17 C11.39 17 5.78 17 0 17 C0 11.39 0 5.78 0 0 Z " fill="#80B152" transform="translate(18,37)"/>
<path d="M0 0 C0.33 0 0.66 0 1 0 C1 11.22 1 22.44 1 34 C-4.61 34 -10.22 34 -16 34 C-16 28.39 -16 22.78 -16 17 C-10.72 17 -5.44 17 0 17 C0 11.39 0 5.78 0 0 Z " fill="#9ACA74" transform="translate(34,3)"/>
<path d="M0 0 C5.61 0 11.22 0 17 0 C17 5.61 17 11.22 17 17 C11.39 17 5.78 17 0 17 C0 11.39 0 5.78 0 0 Z " fill="#A2CC70" transform="translate(52,37)"/>
<path d="M0 0 C5.61 0 11.22 0 17 0 C17 5.61 17 11.22 17 17 C11.39 17 5.78 17 0 17 C0 11.39 0 5.78 0 0 Z " fill="#AAD688" transform="translate(35,20)"/>
<path d="M0 0 C0.33 0 0.66 0 1 0 C1 5.61 1 11.22 1 17 C6.61 17 12.22 17 18 17 C18 17.33 18 17.66 18 18 C12.39 18 6.78 18 1 18 C0.67 23.28 0.34 28.56 0 34 C-4.62 34 -9.24 34 -14 34 C-14 32.02 -14 30.04 -14 28 C-14.33 27.34 -14.66 26.68 -15 26 C-15.13415472 23.3276379 -15.04318541 20.67749512 -15 18 C-10.05 17.67 -5.1 17.34 0 17 C0 11.39 0 5.78 0 0 Z " fill="#785D3E" transform="translate(17,37)"/>
<path d="M0 0 C5.61 0 11.22 0 17 0 C17 5.28 17 10.56 17 16 C11.39 16 5.78 16 0 16 C0 10.72 0 5.44 0 0 Z " fill="#936948" transform="translate(104,89)"/>
<path d="M0 0 C5.61 0 11.22 0 17 0 C17 5.28 17 10.56 17 16 C11.39 16 5.78 16 0 16 C0 10.72 0 5.44 0 0 Z " fill="#6F4C33" transform="translate(70,72)"/>
<path d="M0 0 C5.61 0 11.22 0 17 0 C17 5.28 17 10.56 17 16 C11.39 16 5.78 16 0 16 C0 10.72 0 5.44 0 0 Z " fill="#9E7653" transform="translate(104,55)"/>
<path d="M0 0 C0.74732328 -0.00502753 1.49464657 -0.01005507 2.26461601 -0.01523495 C3.12246193 -0.0280299 3.98030785 -0.04082485 4.86414909 -0.05400753 C6.27919983 -0.05196819 6.27919983 -0.05196819 7.72283745 -0.04988766 C8.71489693 -0.05996349 9.70695641 -0.07003933 10.72907829 -0.08042049 C14.02382358 -0.10902168 17.31811229 -0.11478421 20.61297417 -0.11800289 C22.90023807 -0.12763917 25.18750009 -0.13773128 27.47476006 -0.14826107 C32.27836197 -0.16625544 37.08180184 -0.17177906 41.8854351 -0.17000484 C48.03260003 -0.16970065 54.17872012 -0.21057614 60.32563782 -0.26232147 C65.0543981 -0.29573651 69.78290781 -0.30176071 74.51177406 -0.30017567 C76.77714308 -0.30371087 79.04251891 -0.31695304 81.30777168 -0.34017277 C84.48462119 -0.36967435 87.65923064 -0.36090247 90.8361187 -0.34285641 C92.23295135 -0.36814419 92.23295135 -0.36814419 93.65800285 -0.39394283 C100.43467711 -0.29646058 104.36899746 1.61023466 109.16766167 6.38590336 C113.46057011 11.27569837 113.71161707 15.03206209 113.52996635 21.23697758 C113.52079689 22.10592152 113.51162743 22.97486546 113.5021801 23.87014103 C113.46725167 26.72760197 113.4035721 29.58364656 113.33953667 32.44059086 C113.30962291 34.42739148 113.28151105 36.41421999 113.25512505 38.40107059 C113.18099386 43.61943449 113.08243828 48.83706042 112.97875786 54.05490971 C112.87720665 59.38376108 112.79880468 64.71294777 112.71844292 70.04215336 C112.55747962 80.49052748 112.3707064 90.93826822 112.16766167 101.38590336 C111.83766167 101.38590336 111.50766167 101.38590336 111.16766167 101.38590336 C111.16219322 99.81522099 111.16219322 99.81522099 111.1566143 98.21280766 C111.11961053 88.3258662 111.06177901 78.43923465 110.98375893 68.55252934 C110.9443154 63.47011908 110.91211155 58.38788128 110.89666557 53.30533695 C110.88147848 48.39679336 110.84699632 43.48872397 110.79935265 38.58039188 C110.78456004 36.71143569 110.77662187 34.84241179 110.77577782 32.97339725 C110.7734 30.34736923 110.74625582 27.72264309 110.7135601 25.09684086 C110.72110565 23.94776501 110.72110565 23.94776501 110.72880363 22.7754755 C110.62296074 17.25084422 109.1935918 13.02904147 106.16766167 8.38590336 C104.21429499 6.50566615 104.21429499 6.50566615 102.04266167 5.44840336 C101.35945854 5.06812992 100.67625542 4.68785648 99.97234917 4.29605961 C95.72340007 2.15319134 92.11561826 2.24545593 87.40691948 2.25650883 C86.49942955 2.25475651 85.59193962 2.25300419 84.65695 2.25119877 C81.64487632 2.2467834 78.63286099 2.24971813 75.62078667 2.25309086 C73.53051556 2.25241749 71.44024452 2.2514472 69.34997368 2.25019169 C64.96172149 2.24871495 60.57348962 2.25086764 56.18523979 2.25553226 C50.56516326 2.26121547 44.94513464 2.25795934 39.32505989 2.2519598 C35.00475518 2.24834153 30.68446178 2.24949885 26.36415672 2.25208759 C24.29254717 2.25275409 22.22093658 2.25193813 20.14932823 2.24960804 C17.24818532 2.24706235 14.34711919 2.25094981 11.44598198 2.25650883 C10.5917263 2.2544846 9.73747063 2.25246037 8.85732841 2.25037479 C4.51382992 2.26575604 0.44502866 2.51648167 -3.83233833 3.38590336 C-1.83233833 0.38590336 -1.83233833 0.38590336 0 0 Z " fill="#070705" transform="translate(14.832338333129883,-0.38590335845947266)"/>
<path d="M0 0 C4.95 0 9.9 0 15 0 C15 5.28 15 10.56 15 16 C8.19064748 13.73021583 8.19064748 13.73021583 5.25 10.25 C4.67765625 9.59515625 4.1053125 8.9403125 3.515625 8.265625 C2 6 2 6 0 0 Z " fill="#654730" transform="translate(2,106)"/>
<path d="M0 0 C5.94 0 11.88 0 18 0 C18 0.33 18 0.66 18 1 C12.39 1 6.78 1 1 1 C1 6.28 1 11.56 1 17 C6.28 17 11.56 17 17 17 C17 17.33 17 17.66 17 18 C11.72 18 6.44 18 1 18 C1 23.28 1 28.56 1 34 C0.67 34 0.34 34 0 34 C0 28.72 0 23.44 0 18 C-5.61 18 -11.22 18 -17 18 C-17 17.67 -17 17.34 -17 17 C-11.39 17 -5.78 17 0 17 C0 11.39 0 5.78 0 0 Z " fill="#9B8B5D" transform="translate(69,37)"/>
<path d="M0 0 C0.76554199 0.02785583 1.53108398 0.05571167 2.31982422 0.08441162 C4.73536968 0.17686589 7.14833979 0.29882666 9.5625 0.421875 C11.21215931 0.49024627 12.86190053 0.55667072 14.51171875 0.62109375 C18.52994286 0.78221443 22.54613643 0.96978582 26.5625 1.171875 C26.5625 1.501875 26.5625 1.831875 26.5625 2.171875 C24.10450465 2.34611264 21.64645756 2.51215379 19.1875 2.671875 C18.42961182 2.7231958 17.67172363 2.7745166 16.89086914 2.82739258 C12.80987363 3.07656573 8.79375525 3.18862915 4.70703125 3.02734375 C-4.88427162 2.35246985 -4.88427162 2.35246985 -13.4375 6.109375 C-14.45855032 7.10915344 -15.46389927 8.12583374 -16.4375 9.171875 C-17.4275 9.666875 -17.4275 9.666875 -18.4375 10.171875 C-17.88724561 7.14547586 -17.39238633 4.87995243 -14.83764648 2.98553467 C-9.68645804 0.35030689 -5.73756387 -0.33681861 0 0 Z " fill="#B1DC8E" transform="translate(25.4375,0.828125)"/>
<path d="M0 0 C1.65 0 3.3 0 5 0 C5 5.61 5 11.22 5 17 C5.99 17.33 6.98 17.66 8 18 C7.01 18 6.02 18 5 18 C5 19.65 5 21.3 5 23 C4.67 23 4.34 23 4 23 C2.94523121 18.04649325 3.04445772 13.62160651 3.4375 8.625 C3.48970703 7.88894531 3.54191406 7.15289062 3.59570312 6.39453125 C3.72417723 4.59589371 3.86120949 2.79787091 4 1 C2.68 0.67 1.36 0.34 0 0 Z " fill="#765238" transform="translate(117,88)"/>
<path d="M0 0 C0.99 0.33 1.98 0.66 3 1 C1.78192862 2.15762119 0.54998765 3.3006583 -0.6875 4.4375 C-1.71423828 5.39462891 -1.71423828 5.39462891 -2.76171875 6.37109375 C-5.22289422 8.16221098 -7.00816574 8.62798558 -10 9 C-10 8.34 -10 7.68 -10 7 C-8.3203125 5.78125 -8.3203125 5.78125 -6.125 4.5 C-3.74637514 3.10181191 -1.96207916 1.96207916 0 0 Z " fill="#5D412C" transform="translate(120,113)"/>
<path d="M0 0 C2.62901288 1.52206009 4.84365964 2.84365964 7 5 C7 6.32 7 7.64 7 9 C6.34 9 5.68 9 5 9 C0 3.64285714 0 3.64285714 0 0 Z " fill="#9BC57B" transform="translate(116,4)"/>
<path d="M0 0 C0.66 0.66 1.32 1.32 2 2 C-0.64 3.98 -3.28 5.96 -6 8 C-4.52307692 2.33846154 -4.52307692 2.33846154 -1.875 0.625 C-0.946875 0.315625 -0.946875 0.315625 0 0 Z " fill="#9FCD7F" transform="translate(13,3)"/>
</svg>
